<?xml version="1.0" encoding="UTF-8" standalone="no"?>
<!-- Created with Inkscape (http://www.inkscape.org/) -->

<svg
   xmlns:osb="http://www.openswatchbook.org/uri/2009/osb"
   xmlns:dc="http://purl.org/dc/elements/1.1/"
   xmlns:cc="http://creativecommons.org/ns#"
   xmlns:rdf="http://www.w3.org/1999/02/22-rdf-syntax-ns#"
   xmlns:svg="http://www.w3.org/2000/svg"
   xmlns="http://www.w3.org/2000/svg"
   xmlns:sodipodi="http://sodipodi.sourceforge.net/DTD/sodipodi-0.dtd"
   xmlns:inkscape="http://www.inkscape.org/namespaces/inkscape"
   width="240"
   height="240"
   viewBox="0 0 240 240"
   id="svg5625"
   version="1.1"
   inkscape:version="0.91 r13725"
   sodipodi:docname="logo-320px.svg"
   inkscape:export-filename="/Users/Renata/Sites/Web dev/aufem/img/logo.png"
   inkscape:export-xdpi="90"
   inkscape:export-ydpi="90">
  <defs
     id="defs5627">
    <linearGradient
       id="linearGradient4273"
       osb:paint="solid">
      <stop
         style="stop-color:#691a99;stop-opacity:1;"
         offset="0"
         id="stop4275" />
    </linearGradient>
  </defs>
  <sodipodi:namedview
     id="base"
     pagecolor="#ffffff"
     bordercolor="#666666"
     borderopacity="1.0"
     inkscape:pageopacity="0.0"
     inkscape:pageshadow="2"
     inkscape:zoom="1"
     inkscape:cx="60"
     inkscape:cy="60"
     inkscape:document-units="px"
     inkscape:current-layer="layer3"
     showgrid="true"
     units="px"
     objecttolerance="10000"
     inkscape:snap-global="true"
     inkscape:window-width="1280"
     inkscape:window-height="701"
     inkscape:window-x="0"
     inkscape:window-y="1"
     inkscape:window-maximized="1"
     gridtolerance="10000"
     showguides="false"
     inkscape:guide-bbox="true">
    <inkscape:grid
       type="xygrid"
       id="grid5633"
       spacingx="0.5"
       spacingy="0.5" />
    <sodipodi:guide
       position="57.5,52.5"
       orientation="0,1"
       id="guide9461" />
  </sodipodi:namedview>
  <metadata
     id="metadata5630">
    <rdf:RDF>
      <cc:Work
         rdf:about="">
        <dc:format>image/svg+xml</dc:format>
        <dc:type
           rdf:resource="http://purl.org/dc/dcmitype/StillImage" />
        <dc:title></dc:title>
      </cc:Work>
    </rdf:RDF>
  </metadata>
  <g
     inkscape:groupmode="layer"
     id="layer3"
     inkscape:label="Layer 3"
     style="display:inline"
     transform="translate(0,120)">
    <path
       id="rect9463"
       style="fill:#9b26af;fill-opacity:1;stroke:none;stroke-width:3;stroke-miterlimit:4;stroke-dasharray:none"
       d="m 96.051848,5.8553276 10.454322,0 0,10.7389484 -10.454322,0 z M 215.21739,-107.52815 c -0.73964,0.0254 -1.47843,0.13092 -2.21337,0.29784 -6.82236,2.05963 -14.07101,8.45159 -19.09955,11.779285 -1.35423,1.118313 -2.63014,2.354643 -3.82236,3.691514 -1.19978,1.424371 -2.30312,2.955004 -3.33232,4.543077 -1.11445,1.687055 -2.07155,3.496789 -2.95252,5.352696 -0.99527,1.996212 -1.87155,4.063472 -2.70343,6.15392 -0.82218,2.186594 -1.55513,4.415321 -2.24196,6.661505 -0.66081,2.260094 -1.23774,4.554365 -1.73966,6.867053 -0.0704,0.339671 -0.1122,0.686329 -0.17559,1.027752 -2.10275,0.01976 -4.20776,-0.01375 -6.30935,-0.130049 -3.63677,-0.243009 -7.27486,-0.5222 -10.88719,-1.078089 -3.39239,-0.564386 -6.78134,-1.15 -10.15212,-1.866732 -3.26517,-0.687076 -6.52784,-1.412176 -9.76826,-2.240076 -3.08172,-0.802511 -6.14825,-1.671051 -9.21286,-2.554697 -2.79405,-0.845244 -5.56226,-1.785926 -8.33487,-2.718297 -2.51198,-0.849483 -5.02127,-1.714357 -7.56305,-2.441431 -2.37683,-0.702271 -4.74753,-1.435076 -7.13425,-2.093257 -2.22467,-0.589848 -4.4392,-1.242988 -6.68096,-1.745079 -2.15753,-0.469305 -4.325787,-0.839827 -6.505365,-1.149403 -2.215413,-0.297159 -4.432637,-0.601587 -6.660545,-0.746692 -2.27613,-0.123691 -4.552464,-0.249807 -6.832059,-0.226525 -2.353355,0.07945 -4.707728,0.186192 -7.052581,0.440464 -2.36447,0.34564 -4.72442,0.801865 -7.028079,1.510165 -2.271016,0.746258 -4.526661,1.539834 -6.709549,2.584059 -7.465638,3.393775 -14.130063,7.336395 -20.953556,12.890933 -1.672946,1.258113 -3.315403,2.569833 -4.949465,3.892869 -1.488059,1.242329 -2.919197,2.567221 -4.308323,3.951598 -1.376185,1.351869 -2.770536,2.683131 -4.226649,3.922234 -1.34747,1.182981 -2.71834,2.333451 -4.002043,3.607614 -1.132202,1.147496 -2.263865,2.308636 -3.234304,3.641176 -0.709211,0.978797 -1.382838,1.986044 -1.97652,3.062278 -0.395175,0.67882 -0.850709,1.295252 -1.294538,1.929656 -0.281485,0.400792 -0.48648,0.873336 -0.763656,1.266858 l 16.461467,-8.234591 c 0.136868,-0.415183 0.455436,-0.727158 0.681981,-1.086479 0.467626,-0.594553 0.754641,-1.341052 1.123021,-2.017749 0.574511,-0.969124 1.242747,-1.862117 1.927517,-2.730881 0.993717,-1.179265 2.07752,-2.247086 3.181216,-3.288803 1.32773,-1.150869 2.647169,-2.322576 3.969373,-3.481769 1.433512,-1.280385 2.785824,-2.666962 4.17356,-4.010325 0.617586,-0.611613 1.259479,-1.187283 1.907095,-1.753468 1.80778,-0.824397 3.635397,-1.583112 5.496686,-2.235884 2.241224,-0.823305 4.553788,-1.310738 6.872896,-1.736689 2.293308,-0.386935 4.61187,-0.508741 6.925986,-0.599872 2.245186,-0.07554 4.491219,-0.0039 6.734051,0.117463 2.198944,0.104425 4.389692,0.355442 6.574785,0.646014 2.159048,0.30516 4.314748,0.633628 6.460442,1.044531 2.243055,0.445357 4.453811,1.055716 6.672794,1.631817 2.403181,0.628315 4.796881,1.30832 7.187342,1.996772 2.55007,0.726099 5.07644,1.55294 7.61205,2.340756 2.808,0.940369 5.63115,1.812 8.46147,2.659567 3.09608,0.925698 6.21675,1.74352 9.33946,2.542111 3.25419,0.840527 6.52758,1.583697 9.80501,2.294611 3.40698,0.702275 6.82876,1.308255 10.25421,1.879316 3.67067,0.597042 7.37279,0.870916 11.07096,1.128429 3.77298,0.275712 7.55145,0.274273 11.32823,0.134237 2.42197,-0.148412 4.79523,-0.657026 7.14243,-1.308809 -0.16508,2.208031 -0.30339,4.420475 -0.42471,6.63214 l -0.49413,9.874799 c -0.19587,3.19442 -0.42452,6.386691 -0.66565,9.57696 -0.24729,3.073886 -0.44639,6.152236 -0.66564,9.228783 -0.2375,3.107839 -0.4199,6.2175188 -0.65748,9.3252674 -0.23353,3.1812653 -0.43095,6.36879792 -0.64523,9.5517922 -0.22166,3.1896031 -0.45259,6.3770927 -0.69831,9.5643764 -0.24726,3.130805 -0.57426,6.2524 -0.94334,9.367215 -0.39916,3.100476 -0.88308,6.1847 -1.41705,9.258149 -0.55311,3.064359 -1.27704,6.084847 -2.03369,9.090352 -0.77492,2.969152 -1.60468,5.916003 -2.45023,8.859633 -0.82709,2.87132 -1.6974,5.726503 -2.634,8.553405 -0.9361,2.831742 -1.9271,5.640194 -2.97703,8.419166 -0.98876,2.654923 -2.09364,5.245132 -3.24656,7.810907 -1.05768,2.358639 -2.22852,4.649325 -3.38948,6.942563 -1.06485,2.277463 -2.44098,4.319912 -3.85095,6.325913 -1.50463,2.083388 -3.17618,3.996704 -4.90455,5.835105 -0.50864,0.559198 -1.04297,1.081068 -1.58856,1.58567 -1.29188,0.568799 -2.60171,1.08545 -3.91629,1.581482 -2.76411,1.039702 -5.60774,1.752875 -8.45329,2.428849 -2.96213,0.706773 -5.96247,1.149819 -8.97602,1.434659 -2.98949,0.24502 -5.98812,0.3192 -8.98417,0.36495 -2.88073,0.038 -5.76082,-0.0621 -8.63707,-0.234901 C 100.329,99.673315 97.560349,99.348483 94.800809,98.940725 92.015505,98.561941 89.278516,97.876946 86.559867,97.103356 83.5848,96.262603 80.675353,95.161517 77.771706,94.049478 74.761011,92.855371 71.772272,91.572625 68.861033,90.08949 65.933257,88.565247 63.225482,86.586566 60.677263,84.355049 57.865917,81.799026 55.436595,78.761483 53.06113,75.696771 50.76509,72.696024 48.573827,69.592214 46.441422,66.438623 44.540415,63.618072 42.735454,60.715317 40.956989,57.792929 39.372666,55.205702 37.922272,52.515619 36.505737,49.805836 35.844476,48.557131 35.192913,47.304046 34.537385,46.051399 L 14.437317,40.849723 c -0.103784,0.05084 3.442083,12.224981 7.440533,18.675704 1.488768,2.711043 2.988938,5.413261 4.630937,8.008066 1.832579,2.926344 3.722369,5.806923 5.676368,8.628915 2.200404,3.151151 4.448722,6.255667 6.78714,9.274927 2.442225,3.121147 4.895594,6.250498 7.64472,9.027418 2.580123,2.398759 5.353901,4.499319 8.355285,6.153937 2.923021,1.56524 5.941381,2.845 8.963762,4.13617 2.902947,1.17714 5.831785,2.2607 8.792245,3.23427 2.731646,0.83751 5.475388,1.67332 8.285862,2.08907 2.80326,0.43097 5.614479,0.7636 8.436963,0.9816 2.902045,0.22691 5.809315,0.35696 8.718737,0.33978 3.039211,-0.0238 6.076601,-0.12951 9.110771,-0.33559 3.03094,-0.20039 6.05693,-0.51951 9.04135,-1.18296 2.85942,-0.62759 5.71379,-1.31275 8.51864,-2.21072 2.66292,-0.94563 5.3205,-1.93733 7.86524,-3.25105 7.38517,-3.8564 14.29458,-8.834886 21.09649,-13.889322 1.99087,-1.575597 3.90035,-3.271836 5.61103,-5.239424 1.70211,-1.928517 3.35856,-3.917998 4.81878,-6.095193 1.40094,-2.100392 2.72253,-4.266893 3.79786,-6.611165 1.13706,-2.305057 2.25884,-4.620248 3.27106,-7.001292 1.10128,-2.594695 2.1659,-5.2092 3.12404,-7.878024 1.02563,-2.805501 2.00742,-5.630978 2.93211,-8.482092 0.92958,-2.850284 1.79221,-5.727895 2.59316,-8.628913 0.82897,-2.968997 1.6713,-5.932964 2.41756,-8.930945 0.72541,-3.050115 1.42076,-6.112764 1.95202,-9.2162 0.52162,-3.113758 1.00071,-6.239609 1.38438,-9.3798 0.34076,-3.1352765 0.65284,-6.2728215 0.88208,-9.4217497 0.24196,-3.19481139 0.4644,-6.3928359 0.68607,-9.589546 0.19957,-3.1855996 0.43304,-6.3665423 0.68198,-9.5475973 0.2152,-3.112332 0.42679,-6.223541 0.66565,-9.333656 0.22493,-3.071703 0.42551,-6.148555 0.64931,-9.220393 0.22597,-3.194801 0.42002,-6.390669 0.59622,-9.589546 0.16675,-3.283234 0.30142,-6.567258 0.48188,-9.849631 0.0795,-1.338783 0.17852,-2.678875 0.28994,-4.014519 7.71468,-4.45463 15.26239,-9.328216 22.49721,-14.73669 2.32964,-1.766022 4.49615,-3.796727 6.54211,-5.969345 1.73326,-1.874641 3.32031,-3.90872 4.81471,-6.03227 1.26748,-1.855561 2.37568,-3.835018 3.2588,-5.960956 0.70928,-1.708751 1.19211,-3.511559 1.31087,-5.398837 0.0717,-1.748107 -0.48172,-3.271116 -1.23735,-4.744434 -0.6754,-1.30017 -1.52249,-2.45084 -2.47065,-3.49855 -1.05005,-1.16464 -2.35082,-1.82496 -3.70802,-2.37431 -1.36036,-0.56674 -2.7769,-0.87207 -4.20216,-1.12843 -0.74217,-0.15241 -1.48598,-0.21003 -2.22562,-0.18458 z m -11.94896,11.716363 c 1.32509,0.169697 2.65896,0.380932 3.94486,0.788642 1.13961,0.415858 2.28705,0.812335 3.20981,1.728299 0.85858,0.875933 1.65074,1.830933 2.24605,2.965795 0.56874,1.124346 0.9016,2.275119 0.73099,3.595032 -0.24593,1.634703 -0.72553,3.196365 -1.39664,4.668926 -0.922,1.942658 -2.00764,3.776452 -3.24246,5.478541 -1.4929,2.007238 -3.0636,3.945404 -4.78204,5.705067 -1.11485,1.109909 -2.25549,2.178939 -3.43441,3.196514 -2.40247,1.250052 -4.83539,2.414895 -7.35069,3.343338 -0.61621,0.226173 -1.23871,0.44125 -1.85809,0.658598 0.33897,-2.340343 0.71809,-4.673447 1.26595,-6.963536 0.53595,-2.255342 1.11262,-4.499147 1.805,-6.699259 0.71055,-2.201121 1.4441,-4.395151 2.33589,-6.510488 0.86196,-2.043868 1.76363,-4.068369 2.7851,-6.015488 0.96175,-1.788394 1.99393,-3.520159 3.15263,-5.151339 0.19112,-0.267251 0.39415,-0.523652 0.58805,-0.788642 z m -7.73048,2.705712 c -4.48131,2.854608 -2.99057,1.780035 0,0 z"
       inkscape:connector-curvature="0" />
  </g>
</svg>
